<svg xmlns="http://www.w3.org/2000/svg" xmlns:xlink="http://www.w3.org/1999/xlink" width="615" zoomAndPan="magnify" viewBox="0 0 461.25 295.499996" height="394" preserveAspectRatio="xMidYMid meet" version="1.0"><defs><clipPath id="1b76bcc1dc"><path d="M 69.785156 59.847656 L 358 59.847656 L 358 217.082031 L 69.785156 217.082031 Z M 69.785156 59.847656 " clip-rule="nonzero"/></clipPath></defs><g clip-path="url(#1b76bcc1dc)"><path fill="#ff9900" d="M 89.5 123.0625 L 338.464844 123.0625 C 349.203125 123.0625 357.992188 131.851562 357.992188 142.59375 L 357.992188 197.847656 C 357.992188 208.585938 349.203125 217.375 338.464844 217.375 L 89.5 217.375 C 78.757812 217.375 69.96875 208.585938 69.96875 197.847656 L 69.96875 142.59375 C 69.96875 131.851562 78.757812 123.0625 89.5 123.0625 Z M 213.980469 59.847656 C 217.894531 59.847656 221.066406 63.019531 221.066406 66.933594 C 221.066406 67.089844 221.0625 67.242188 221.050781 67.398438 L 320.980469 120.078125 L 314.78125 120.078125 L 220.25 70.242188 C 219.058594 72.488281 216.699219 74.019531 213.980469 74.019531 C 211.261719 74.019531 208.902344 72.488281 207.710938 70.242188 L 113.179688 120.078125 L 106.984375 120.078125 L 206.910156 67.398438 C 206.898438 67.242188 206.894531 67.089844 206.894531 66.933594 C 206.894531 63.019531 210.066406 59.847656 213.980469 59.847656 Z M 89.5 126.804688 L 338.464844 126.804688 C 347.144531 126.804688 354.25 133.910156 354.25 142.59375 L 354.25 197.847656 C 354.25 206.53125 347.144531 213.636719 338.464844 213.636719 L 89.5 213.636719 C 80.816406 213.636719 73.710938 206.53125 73.710938 197.847656 L 73.710938 142.59375 C 73.710938 133.910156 80.816406 126.804688 89.5 126.804688 Z M 89.5 130.546875 L 338.464844 130.546875 C 345.085938 130.546875 350.507812 135.96875 350.507812 142.59375 L 350.507812 197.847656 C 350.507812 204.472656 345.085938 209.890625 338.464844 209.890625 L 89.5 209.890625 C 82.875 209.890625 77.453125 204.472656 77.453125 197.847656 L 77.453125 142.59375 C 77.453125 135.964844 82.875 130.546875 89.5 130.546875 Z M 103.410156 175.75 L 103.410156 181.957031 C 103.410156 182.996094 103.265625 183.8125 102.976562 184.433594 C 102.6875 185.054688 102.28125 185.5 101.753906 185.78125 C 101.226562 186.058594 100.59375 186.191406 99.871094 186.183594 C 99.144531 186.191406 98.515625 186.058594 97.984375 185.78125 C 97.457031 185.5 97.054688 185.054688 96.761719 184.433594 C 96.472656 183.8125 96.328125 182.996094 96.328125 181.957031 L 96.328125 158.480469 C 96.339844 156.9375 96.660156 155.839844 97.28125 155.164062 C 97.914062 154.503906 98.773438 154.171875 99.871094 154.195312 C 100.96875 154.171875 101.828125 154.503906 102.457031 155.164062 C 103.078125 155.839844 103.398438 156.9375 103.410156 158.480469 L 103.410156 163.136719 L 109.871094 163.136719 L 109.871094 158.914062 C 109.871094 156.585938 109.488281 154.605469 108.722656 152.984375 C 107.957031 151.355469 106.816406 150.125 105.304688 149.265625 C 103.792969 148.414062 101.917969 147.992188 99.683594 147.980469 C 97.445312 147.992188 95.574219 148.414062 94.0625 149.265625 C 92.550781 150.125 91.410156 151.355469 90.644531 152.984375 C 89.878906 154.605469 89.496094 156.585938 89.496094 158.914062 L 89.496094 181.527344 C 89.496094 183.855469 89.878906 185.820312 90.644531 187.445312 C 91.410156 189.074219 92.550781 190.3125 94.0625 191.171875 C 95.574219 192.023438 97.445312 192.449219 99.683594 192.457031 C 101.917969 192.449219 103.792969 192.023438 105.304688 191.171875 C 106.816406 190.3125 107.957031 189.074219 108.722656 187.445312 C 109.488281 185.820312 109.871094 183.855469 109.871094 181.527344 L 109.871094 175.75 Z M 120.304688 158.480469 C 120.316406 156.9375 120.636719 155.839844 121.257812 155.164062 C 121.890625 154.503906 122.75 154.171875 123.847656 154.195312 C 124.945312 154.171875 125.804688 154.503906 126.4375 155.164062 C 127.054688 155.839844 127.378906 156.9375 127.386719 158.480469 L 127.386719 181.957031 C 127.378906 183.503906 127.054688 184.601562 126.4375 185.273438 C 125.804688 185.933594 124.945312 186.265625 123.847656 186.246094 C 122.75 186.265625 121.890625 185.933594 121.257812 185.273438 C 120.636719 184.601562 120.316406 183.503906 120.304688 181.957031 Z M 113.472656 181.527344 C 113.472656 183.855469 113.878906 185.820312 114.675781 187.445312 C 115.472656 189.074219 116.632812 190.3125 118.175781 191.171875 C 119.71875 192.023438 121.609375 192.449219 123.847656 192.457031 C 126.082031 192.449219 127.980469 192.023438 129.519531 191.171875 C 131.0625 190.3125 132.222656 189.074219 133.019531 187.445312 C 133.816406 185.820312 134.222656 183.855469 134.222656 181.527344 L 134.222656 158.914062 C 134.222656 156.585938 133.816406 154.605469 133.019531 152.980469 C 132.222656 151.355469 131.0625 150.125 129.519531 149.265625 C 127.980469 148.414062 126.082031 147.992188 123.847656 147.980469 C 121.609375 147.992188 119.71875 148.414062 118.175781 149.265625 C 116.632812 150.125 115.472656 151.355469 114.675781 152.980469 C 113.878906 154.605469 113.472656 156.585938 113.472656 158.914062 Z M 148.074219 148.476562 L 138.570312 148.476562 L 138.570312 191.960938 L 144.53125 191.960938 L 144.53125 161.210938 L 149.625 191.960938 L 156.085938 191.960938 L 160.808594 160.777344 L 160.808594 191.960938 L 167.265625 191.960938 L 167.265625 148.476562 L 157.765625 148.476562 L 153.105469 179.351562 Z M 172.238281 191.960938 L 179.070312 191.960938 L 179.070312 148.476562 L 172.238281 148.476562 Z M 198.636719 191.960938 L 205.65625 191.960938 L 205.65625 148.476562 L 199.570312 148.476562 L 199.570312 174.503906 L 192.550781 148.476562 L 183.976562 148.476562 L 183.976562 191.960938 L 190.128906 191.960938 L 190.128906 160.46875 Z M 220.8125 173.945312 L 223.917969 173.945312 L 223.917969 181.957031 C 223.917969 182.984375 223.773438 183.8125 223.484375 184.433594 C 223.195312 185.054688 222.789062 185.5 222.265625 185.78125 C 221.738281 186.058594 221.105469 186.191406 220.378906 186.183594 C 219.652344 186.191406 219.019531 186.058594 218.496094 185.78125 C 217.96875 185.5 217.566406 185.054688 217.273438 184.433594 C 216.984375 183.8125 216.839844 182.984375 216.839844 181.957031 L 216.839844 158.480469 C 216.851562 156.9375 217.167969 155.839844 217.789062 155.164062 C 218.421875 154.503906 219.28125 154.171875 220.378906 154.195312 C 221.476562 154.171875 222.335938 154.503906 222.96875 155.164062 C 223.589844 155.839844 223.90625 156.9375 223.917969 158.480469 L 223.917969 163.136719 L 230.378906 163.136719 L 230.378906 158.914062 C 230.378906 156.585938 229.996094 154.605469 229.230469 152.984375 C 228.464844 151.355469 227.328125 150.125 225.8125 149.265625 C 224.304688 148.414062 222.429688 147.992188 220.191406 147.980469 C 217.957031 147.992188 216.082031 148.414062 214.570312 149.265625 C 213.058594 150.125 211.921875 151.355469 211.15625 152.984375 C 210.386719 154.605469 210.003906 156.585938 210.003906 158.914062 L 210.003906 181.527344 C 210.003906 183.855469 210.386719 185.820312 211.15625 187.445312 C 211.921875 189.074219 213.058594 190.3125 214.570312 191.171875 C 216.082031 192.023438 217.957031 192.449219 220.191406 192.457031 C 222.429688 192.449219 224.304688 192.023438 225.8125 191.171875 C 227.328125 190.3125 228.464844 189.074219 229.230469 187.445312 C 229.996094 185.820312 230.378906 183.855469 230.378906 181.527344 L 230.378906 167.734375 L 220.8125 167.734375 Z M 243.550781 158.914062 C 243.558594 160.675781 243.808594 162.25 244.296875 163.636719 C 244.769531 165.011719 245.402344 166.253906 246.199219 167.351562 C 246.988281 168.449219 247.855469 169.464844 248.808594 170.386719 C 249.75 171.308594 250.703125 172.195312 251.648438 173.046875 C 252.597656 173.894531 253.46875 174.765625 254.253906 175.65625 C 255.050781 176.535156 255.679688 177.5 256.167969 178.523438 C 256.648438 179.546875 256.894531 180.6875 256.90625 181.957031 C 256.90625 182.996094 256.761719 183.8125 256.46875 184.433594 C 256.179688 185.054688 255.777344 185.5 255.246094 185.777344 C 254.71875 186.058594 254.089844 186.191406 253.367188 186.183594 C 252.636719 186.191406 252.007812 186.058594 251.480469 185.777344 C 250.949219 185.5 250.546875 185.054688 250.257812 184.433594 C 249.96875 183.8125 249.824219 182.996094 249.824219 181.957031 L 249.824219 178.855469 L 243.363281 178.855469 L 243.363281 181.527344 C 243.363281 183.855469 243.746094 185.820312 244.511719 187.445312 C 245.277344 189.074219 246.417969 190.3125 247.925781 191.171875 C 249.441406 192.023438 251.316406 192.449219 253.550781 192.457031 C 255.789062 192.449219 257.660156 192.023438 259.171875 191.171875 C 260.683594 190.3125 261.824219 189.074219 262.585938 187.445312 C 263.355469 185.820312 263.734375 183.855469 263.734375 181.527344 C 263.726562 179.753906 263.476562 178.179688 263 176.804688 C 262.515625 175.425781 261.882812 174.183594 261.085938 173.085938 C 260.300781 171.988281 259.429688 170.972656 258.476562 170.054688 C 257.539062 169.132812 256.582031 168.242188 255.640625 167.394531 C 254.6875 166.542969 253.816406 165.675781 253.03125 164.785156 C 252.234375 163.90625 251.605469 162.941406 251.117188 161.917969 C 250.640625 160.890625 250.390625 159.742188 250.382812 158.480469 C 250.390625 156.9375 250.683594 155.839844 251.273438 155.164062 C 251.863281 154.503906 252.699219 154.171875 253.796875 154.191406 C 254.898438 154.171875 255.734375 154.503906 256.324219 155.164062 C 256.914062 155.839844 257.207031 156.9375 257.214844 158.480469 L 257.214844 160.28125 L 263.675781 160.28125 L 263.675781 158.914062 C 263.675781 156.585938 263.289062 154.605469 262.546875 152.980469 C 261.792969 151.355469 260.664062 150.125 259.171875 149.265625 C 257.679688 148.414062 255.828125 147.992188 253.613281 147.980469 C 251.394531 147.992188 249.542969 148.414062 248.050781 149.265625 C 246.5625 150.125 245.433594 151.355469 244.679688 152.980469 C 243.933594 154.605469 243.550781 156.585938 243.550781 158.914062 Z M 273.925781 158.480469 C 273.933594 156.9375 274.253906 155.839844 274.878906 155.164062 C 275.507812 154.503906 276.367188 154.171875 277.464844 154.195312 C 278.5625 154.171875 279.421875 154.503906 280.054688 155.164062 C 280.671875 155.839844 280.996094 156.9375 281.003906 158.480469 L 281.003906 181.957031 C 280.996094 183.503906 280.671875 184.601562 280.054688 185.273438 C 279.421875 185.933594 278.5625 186.265625 277.464844 186.246094 C 276.367188 186.265625 275.507812 185.933594 274.878906 185.273438 C 274.253906 184.601562 273.933594 183.503906 273.925781 181.957031 Z M 267.09375 181.527344 C 267.09375 183.855469 267.496094 185.820312 268.292969 187.445312 C 269.089844 189.074219 270.25 190.3125 271.789062 191.171875 C 273.335938 192.023438 275.226562 192.449219 277.464844 192.457031 C 279.699219 192.449219 281.597656 192.023438 283.136719 191.171875 C 284.683594 190.3125 285.84375 189.074219 286.636719 187.445312 C 287.433594 185.820312 287.839844 183.855469 287.839844 181.527344 L 287.839844 158.914062 C 287.839844 156.585938 287.433594 154.605469 286.636719 152.980469 C 285.84375 151.355469 284.683594 150.125 283.136719 149.265625 C 281.597656 148.414062 279.699219 147.992188 277.464844 147.980469 C 275.226562 147.992188 273.335938 148.414062 271.789062 149.265625 C 270.25 150.125 269.089844 151.355469 268.292969 152.980469 C 267.496094 154.605469 267.09375 156.585938 267.09375 158.914062 Z M 298.523438 158.480469 C 298.53125 156.9375 298.855469 155.839844 299.476562 155.164062 C 300.105469 154.503906 300.964844 154.171875 302.066406 154.195312 C 303.160156 154.171875 304.019531 154.503906 304.652344 155.164062 C 305.273438 155.839844 305.59375 156.9375 305.605469 158.480469 L 305.605469 181.957031 C 305.59375 183.503906 305.273438 184.601562 304.652344 185.273438 C 304.019531 185.933594 303.160156 186.265625 302.066406 186.246094 C 300.964844 186.265625 300.105469 185.933594 299.476562 185.273438 C 298.855469 184.601562 298.53125 183.503906 298.523438 181.957031 Z M 291.691406 181.527344 C 291.691406 183.855469 292.09375 185.820312 292.894531 187.445312 C 293.6875 189.074219 294.847656 190.3125 296.390625 191.171875 C 297.933594 192.023438 299.828125 192.449219 302.066406 192.457031 C 304.300781 192.449219 306.195312 192.023438 307.738281 191.171875 C 309.28125 190.3125 310.4375 189.074219 311.238281 187.445312 C 312.03125 185.820312 312.441406 183.855469 312.441406 181.527344 L 312.441406 158.914062 C 312.441406 156.585938 312.03125 154.605469 311.238281 152.980469 C 310.4375 151.355469 309.28125 150.125 307.738281 149.265625 C 306.195312 148.414062 304.300781 147.992188 302.066406 147.980469 C 299.828125 147.992188 297.933594 148.414062 296.390625 149.265625 C 294.847656 150.125 293.6875 151.355469 292.894531 152.980469 C 292.09375 154.605469 291.691406 156.585938 291.691406 158.914062 Z M 331.445312 191.960938 L 338.464844 191.960938 L 338.464844 148.476562 L 332.378906 148.476562 L 332.378906 174.503906 L 325.359375 148.476562 L 316.785156 148.476562 L 316.785156 191.960938 L 322.9375 191.960938 L 322.9375 160.46875 Z M 331.445312 191.960938 " fill-opacity="1" fill-rule="evenodd"/></g></svg>